<svg width="39" height="39" viewBox="0 0 39 39" fill="none" xmlns="http://www.w3.org/2000/svg">
<path d="M39 19.5C39 30.2696 30.2696 39 19.5 39C8.73045 39 0 30.2696 0 19.5C0 8.73045 8.73045 0 19.5 0C30.2696 0 39 8.73045 39 19.5Z" fill="white"/>
<path fill-rule="evenodd" clip-rule="evenodd" d="M27.6134 15.4243C28.1867 15.975 28.1701 16.8525 27.5763 17.3843L19.5 25.001L11.8814 17.3843C11.3084 16.8332 11.3256 15.9557 11.9198 15.4243C12.514 14.8929 13.4602 14.9089 14.0331 15.46L19.5 21L25.5 15.3899C26.0938 14.8582 27.04 14.8736 27.6134 15.4243Z" fill="#0CBB65"/>
</svg>
