<svg width="40" height="40" viewBox="0 0 40 40" fill="none" xmlns="http://www.w3.org/2000/svg">
<path d="M0 20C0 8.95431 8.95431 0 20 0C31.0457 0 40 8.95431 40 20C40 31.0457 31.0457 40 20 40C8.95431 40 0 31.0457 0 20Z" fill="#EDF2F6"/>
<path d="M28 20C28 24.4183 24.4183 28 20 28C15.5817 28 12 24.4183 12 20C12 15.5817 15.5817 12 20 12C24.4183 12 28 15.5817 28 20Z" fill="#0CBB65"/>
<path fill-rule="evenodd" clip-rule="evenodd" d="M20.0002 15.5547C20.4911 15.5547 20.8891 15.9527 20.8891 16.4436V20.3847L22.6798 21.4591C23.1007 21.7117 23.2372 22.2577 22.9847 22.6787C22.7321 23.0996 22.1861 23.2361 21.7651 22.9836L19.5429 21.6502C19.2751 21.4896 19.1113 21.2003 19.1113 20.888V16.4436C19.1113 15.9527 19.5093 15.5547 20.0002 15.5547Z" fill="#EDF2F6"/>
</svg>
