<svg width="59" height="50" viewBox="0 0 59 50" fill="none" xmlns="http://www.w3.org/2000/svg">
<path d="M51.7239 49.0976H58.9853L29.4928 19.6075L15.1424 33.9568V26.8236H10.0479V39.0508L0 49.0979H7.26142L11.11 45.2499H47.8753L51.7239 49.0976ZM16.245 40.1154L29.4928 26.869L42.7406 40.1154H16.245Z" fill="#0CBB65"/>
<path d="M26.9966 35.0313C26.9966 36.4098 28.1141 37.5273 29.4927 37.5273C30.8712 37.5273 31.989 36.4098 31.989 35.0313C31.989 33.6527 30.8715 32.5352 29.4927 32.5352C28.1144 32.5352 26.9966 33.6527 26.9966 35.0313Z" fill="#0CBB65"/>
<path d="M21.1188 21.7083C21.5513 22.1218 22.2453 22.0742 22.6174 21.6057L25.7443 17.6685L25.091 17.0443L26.3405 15.7375C26.8566 15.1975 27.7131 15.1782 28.2531 15.6946L28.5954 16.0216L29.5518 15.0212L58.9998 44.4004L58.965 37.0806L32.0457 12.4121L33.0021 11.4116C33.0021 11.4116 28.2691 6.13671 36.886 0.0107366C25.2336 -0.388571 22.8024 10.4829 22.8024 10.4829L23.1447 10.8102C23.6847 11.3266 23.704 12.1828 23.1876 12.7228L21.9383 14.0297L21.2853 13.4052L17.4927 16.7059C17.0415 17.0986 17.0252 17.794 17.4577 18.2075L21.1188 21.7083Z" fill="#0CBB65"/>
</svg>
