<svg width="59" height="50" viewBox="0 0 59 50" fill="none" xmlns="http://www.w3.org/2000/svg">
<path d="M51.7239 49.0975H58.9853L29.4928 19.6074L15.1424 33.9567V26.8235H10.0479V39.0507L0 49.0978H7.26142L11.11 45.2497H47.8753L51.7239 49.0975ZM16.245 40.1152L29.4928 26.8688L42.7406 40.1152H16.245Z" fill="#0CBB65"/>
<path d="M26.9966 35.0312C26.9966 36.4098 28.1141 37.5273 29.4927 37.5273C30.8712 37.5273 31.989 36.4098 31.989 35.0312C31.989 33.6527 30.8715 32.5352 29.4927 32.5352C28.1144 32.5352 26.9966 33.6527 26.9966 35.0312Z" fill="#0CBB65"/>
<path d="M21.1191 21.7083C21.5515 22.1218 22.2455 22.0742 22.6177 21.6057L25.7445 17.6685L25.0912 17.0443L26.3407 15.7375C26.8569 15.1975 27.7133 15.1782 28.2533 15.6946L28.5956 16.0216L29.552 15.0212L59 44.4004L58.9652 37.0806L32.046 12.4121L33.0024 11.4116C33.0024 11.4116 28.2694 6.13671 36.8863 0.0107366C25.2338 -0.388571 22.8027 10.4829 22.8027 10.4829L23.1449 10.8102C23.6849 11.3266 23.7042 12.1828 23.1878 12.7228L21.9386 14.0297L21.2856 13.4052L17.493 16.7059C17.0418 17.0986 17.0255 17.794 17.4579 18.2075L21.1191 21.7083Z" fill="#0CBB65"/>
</svg>
