<svg width="31" height="31" viewBox="0 0 31 31" fill="none" xmlns="http://www.w3.org/2000/svg">
<path d="M31 15.5C31 24.0604 24.0604 31 15.5 31C6.93959 31 0 24.0604 0 15.5C0 6.93959 6.93959 0 15.5 0C24.0604 0 31 6.93959 31 15.5Z" fill="#0CBB65"/>
<path fill-rule="evenodd" clip-rule="evenodd" d="M13.2569 8.25H18.7432C19.1185 8.24998 19.4449 8.24997 19.7143 8.27223C19.9996 8.29579 20.2866 8.34807 20.5635 8.49071C20.9741 8.70224 21.3063 9.03894 21.5141 9.45117C21.6537 9.72828 21.7049 10.0154 21.7281 10.302C21.75 10.5733 21.75 10.9025 21.75 11.2827V19.7173C21.75 20.0975 21.75 20.4267 21.7281 20.698C21.7049 20.9846 21.6537 21.2717 21.5141 21.5488C21.3063 21.9611 20.9741 22.2978 20.5635 22.5093C20.2866 22.6519 19.9996 22.7042 19.7143 22.7278C19.445 22.75 19.1185 22.75 18.7432 22.75H13.2568C12.8815 22.75 12.555 22.75 12.2857 22.7278C12.0004 22.7042 11.7134 22.6519 11.4365 22.5093C11.026 22.2978 10.6937 21.9611 10.4859 21.5488C10.3463 21.2717 10.2951 20.9846 10.2719 20.698C10.25 20.4267 10.25 20.0975 10.25 19.7173V11.2827C10.25 10.9025 10.25 10.5733 10.2719 10.302C10.2951 10.0154 10.3463 9.72828 10.4859 9.45117C10.6937 9.03894 11.0259 8.70224 11.4365 8.49071C11.7134 8.34807 12.0004 8.29579 12.2857 8.27223C12.5551 8.24997 12.8815 8.24998 13.2569 8.25ZM11.75 14.0833V19.6889C11.75 20.1056 11.7506 20.3735 11.767 20.5772C11.7828 20.7723 11.8094 20.8419 11.8255 20.8738C11.8917 21.0052 11.9965 21.1104 12.1235 21.1758C12.1522 21.1906 12.218 21.2171 12.4092 21.2329C12.6094 21.2494 12.8732 21.25 13.2857 21.25H18.7143C19.1268 21.25 19.3906 21.2494 19.5908 21.2329C19.782 21.2171 19.8478 21.1906 19.8765 21.1758C20.0035 21.1104 20.1083 21.0052 20.1745 20.8738C20.1906 20.8419 20.2172 20.7723 20.233 20.5772C20.2494 20.3735 20.25 20.1056 20.25 19.6889V14.0833H11.75ZM20.25 12.5833H11.75V11.3111C11.75 10.8944 11.7506 10.6265 11.767 10.4228C11.7828 10.2277 11.8094 10.1581 11.8255 10.1262C11.8917 9.99484 11.9965 9.8896 12.1235 9.82416C12.1522 9.80936 12.218 9.78293 12.4092 9.76713C12.6094 9.7506 12.8732 9.75 13.2857 9.75H18.7143C19.1268 9.75 19.3906 9.7506 19.5908 9.76713C19.782 9.78293 19.8478 9.80936 19.8765 9.82416C20.0035 9.8896 20.1083 9.99484 20.1745 10.1262C20.1906 10.1581 20.2172 10.2277 20.233 10.4228C20.2494 10.6265 20.25 10.8944 20.25 11.3111V12.5833ZM13.1071 15.5C13.1071 15.0858 13.4429 14.75 13.8571 14.75H13.8643C14.2785 14.75 14.6143 15.0858 14.6143 15.5C14.6143 15.9142 14.2785 16.25 13.8643 16.25H13.8571C13.4429 16.25 13.1071 15.9142 13.1071 15.5ZM15.25 15.5C15.25 15.0858 15.5858 14.75 16 14.75H16.0071C16.4214 14.75 16.7571 15.0858 16.7571 15.5C16.7571 15.9142 16.4214 16.25 16.0071 16.25H16C15.5858 16.25 15.25 15.9142 15.25 15.5ZM17.3929 15.5C17.3929 15.0858 17.7286 14.75 18.1429 14.75H18.15C18.5642 14.75 18.9 15.0858 18.9 15.5C18.9 15.9142 18.5642 16.25 18.15 16.25H18.1429C17.7286 16.25 17.3929 15.9142 17.3929 15.5ZM13.1071 17.6667C13.1071 17.2525 13.4429 16.9167 13.8571 16.9167H13.8643C14.2785 16.9167 14.6143 17.2525 14.6143 17.6667C14.6143 18.0809 14.2785 18.4167 13.8643 18.4167H13.8571C13.4429 18.4167 13.1071 18.0809 13.1071 17.6667ZM15.25 17.6667C15.25 17.2525 15.5858 16.9167 16 16.9167H16.0071C16.4214 16.9167 16.7571 17.2525 16.7571 17.6667C16.7571 18.0809 16.4214 18.4167 16.0071 18.4167H16C15.5858 18.4167 15.25 18.0809 15.25 17.6667ZM18.1429 16.9167C18.5571 16.9167 18.8929 17.2525 18.8929 17.6667V19.8333C18.8929 20.2475 18.5571 20.5833 18.1429 20.5833C17.7286 20.5833 17.3929 20.2475 17.3929 19.8333V17.6667C17.3929 17.2525 17.7286 16.9167 18.1429 16.9167ZM13.1071 19.8333C13.1071 19.4191 13.4429 19.0833 13.8571 19.0833H13.8643C14.2785 19.0833 14.6143 19.4191 14.6143 19.8333C14.6143 20.2475 14.2785 20.5833 13.8643 20.5833H13.8571C13.4429 20.5833 13.1071 20.2475 13.1071 19.8333ZM15.25 19.8333C15.25 19.4191 15.5858 19.0833 16 19.0833H16.0071C16.4214 19.0833 16.7571 19.4191 16.7571 19.8333C16.7571 20.2475 16.4214 20.5833 16.0071 20.5833H16C15.5858 20.5833 15.25 20.2475 15.25 19.8333Z" fill="white"/>
</svg>
