<svg width="40" height="40" viewBox="0 0 40 40" fill="none" xmlns="http://www.w3.org/2000/svg">
<path d="M0 20C0 8.95431 8.95431 0 20 0C31.0457 0 40 8.95431 40 20C40 31.0457 31.0457 40 20 40C8.95431 40 0 31.0457 0 20Z" fill="#EDF2F6"/>
<path d="M20.5 12C17.4593 12 15 14.504 15 17.6C15 21.8 20.5 28 20.5 28C20.5 28 26 21.8 26 17.6C26 14.504 23.5407 12 20.5 12ZM20.5 19.6C19.4157 19.6 18.5357 18.704 18.5357 17.6C18.5357 16.496 19.4157 15.6 20.5 15.6C21.5843 15.6 22.4643 16.496 22.4643 17.6C22.4643 18.704 21.5843 19.6 20.5 19.6Z" fill="#0CBB65"/>
</svg>
