<svg width="40" height="40" viewBox="0 0 40 40" fill="none" xmlns="http://www.w3.org/2000/svg">
<path d="M0 20C0 8.95431 8.95431 0 20 0C31.0457 0 40 8.95431 40 20C40 31.0457 31.0457 40 20 40C8.95431 40 0 31.0457 0 20Z" fill="#EDF2F6"/>
<path d="M26.5 15H14.5C13.675 15 13.0075 15.5625 13.0075 16.25L13 23.75C13 24.4375 13.675 25 14.5 25H26.5C27.325 25 28 24.4375 28 23.75V16.25C28 15.5625 27.325 15 26.5 15ZM26.5 17.5L20.5 20.625L14.5 17.5V16.25L20.5 19.375L26.5 16.25V17.5Z" fill="#0CBB65"/>
</svg>
