<svg width="40" height="40" viewBox="0 0 40 40" fill="none" xmlns="http://www.w3.org/2000/svg">
<path d="M0 20C0 8.95431 8.95431 0 20 0C31.0457 0 40 8.95431 40 20C40 31.0457 31.0457 40 20 40C8.95431 40 0 31.0457 0 20Z" fill="#EDF2F6"/>
<path d="M15.0167 19.4917C16.2167 21.85 18.15 23.775 20.5083 24.9833L22.3417 23.15C22.5667 22.925 22.9 22.85 23.1917 22.95C24.125 23.2583 25.1333 23.425 26.1667 23.425C26.625 23.425 27 23.8 27 24.2583V27.1667C27 27.625 26.625 28 26.1667 28C18.3417 28 12 21.6583 12 13.8333C12 13.375 12.375 13 12.8333 13H15.75C16.2083 13 16.5833 13.375 16.5833 13.8333C16.5833 14.875 16.75 15.875 17.0583 16.8083C17.15 17.1 17.0833 17.425 16.85 17.6583L15.0167 19.4917Z" fill="#0CBB65"/>
</svg>
