<svg width="39" height="39" viewBox="0 0 39 39" fill="none" xmlns="http://www.w3.org/2000/svg">
<path d="M39 19.5C39 30.2696 30.2696 39 19.5 39C8.73045 39 0 30.2696 0 19.5C0 8.73045 8.73045 0 19.5 0C30.2696 0 39 8.73045 39 19.5Z" fill="white"/>
<path fill-rule="evenodd" clip-rule="evenodd" d="M28.4815 13.5503C29.1904 14.2663 29.1698 15.407 28.4357 16.0983L17.9192 26L12.5177 20.5376C11.8093 19.8212 11.8306 18.6805 12.5652 17.9897C13.2998 17.2989 14.4696 17.3196 15.178 18.036L18.0125 20.9025L25.8687 13.5056C26.6028 12.8144 27.7726 12.8344 28.4815 13.5503Z" fill="#0CBB65"/>
</svg>
