<svg width="24" height="14" viewBox="0 0 24 14" fill="none" xmlns="http://www.w3.org/2000/svg">
<path d="M13.1359 13.933C13.4533 13.8682 14.0245 13.7385 14.0245 12.9604C14.0245 12.9604 13.961 11.0153 14.8495 10.7559C15.738 10.4965 16.8804 12.6362 18.0863 13.4791C18.9748 14.0627 19.6729 13.9979 19.6729 13.9979L22.9097 13.933C22.9097 13.933 24.5598 13.8033 23.7982 12.4417C23.7347 12.312 23.227 11.4691 21.323 9.71847C19.3556 7.77329 19.6729 8.09749 22.0212 4.79069C23.4809 2.78067 24.1155 1.54873 23.9251 1.09485C23.6713 0.640976 22.6558 0.705815 22.6558 0.705815H19.0383C18.6575 0.705815 18.4671 0.770654 18.2767 1.09485C18.2767 1.09485 17.7055 2.71583 16.9439 4.01262C15.3572 6.8007 14.7226 6.93038 14.4053 6.73586C13.8341 6.41167 13.961 5.17972 13.961 4.33681C13.961 1.41905 14.4053 0.381619 13.1359 0.122262C12.3109 -0.00741643 9.39145 -0.137095 8.50293 0.31678C8.05867 0.576137 7.8048 1.03001 7.9952 1.09485C8.1856 1.09485 8.75679 1.15969 9.07412 1.54873C9.58185 2.39163 9.64531 6.41167 8.94719 6.8007C7.9952 7.51393 5.58349 2.78067 5.0123 1.22453C4.88537 0.835494 4.69497 0.770654 4.25071 0.640976H0.760084C0.379288 0.640976 -0.191905 0.705815 0.0619587 1.48389C1.77554 5.11488 5.32963 13.9979 11.7397 13.933H13.1359Z" fill="white"/>
</svg>
